<svg width="24" height="24" viewBox="0 0 24 24" fill="none" xmlns="http://www.w3.org/2000/svg">
<path d="M14.268 22.2003C13.32 22.0443 12.516 21.5283 11.928 20.7123L11.664 20.3523L11.484 20.7243C11.244 21.1803 10.524 21.8163 10.008 22.0323C9.39599 22.2843 8.15999 22.2483 7.35599 21.9483C6.44399 21.6003 5.62799 20.7843 5.33999 19.9323C5.12399 19.2843 5.13599 17.8803 5.35199 17.1723C5.42399 16.9203 5.41199 16.8963 5.20799 16.9683C4.57199 17.2203 3.75599 17.2803 3.15599 17.1243C2.80799 17.0283 2.55599 17.0043 2.60399 17.0763C2.63999 17.1363 2.60399 17.1723 2.50799 17.1363C2.41199 17.1003 2.27999 16.9683 2.20799 16.8243C2.13599 16.6803 1.99199 16.4643 1.88399 16.3443C1.37999 15.7923 1.16399 14.5803 1.45199 13.8363C1.63199 13.3443 2.15999 12.8403 2.48399 12.8403C2.68799 12.8403 2.75999 12.7683 2.75999 12.5763C2.75999 12.3723 2.79599 12.3483 2.90399 12.4563C2.98799 12.5403 3.21599 12.6003 3.41999 12.6003C4.34399 12.6003 5.09999 13.6803 4.79999 14.5803C4.61999 15.1323 4.27199 15.3483 3.51599 15.3723C2.83199 15.3963 2.77199 15.5283 3.39599 15.6483C3.92399 15.7443 4.59599 15.5043 5.56799 14.8443L6.35999 14.3163L6.04799 14.0283C5.60399 13.6323 5.15999 12.6363 5.15999 12.0723C5.15999 11.8083 5.24399 11.2803 5.35199 10.8963C5.53199 10.2723 5.57999 10.2003 5.87999 10.2003C6.10799 10.2003 6.23999 10.2843 6.33599 10.5003C6.41999 10.6683 6.56399 10.8363 6.65999 10.8723C6.80399 10.9323 6.82799 11.0763 6.76799 11.5683C6.70799 12.0843 6.73199 12.2283 6.95999 12.5163C7.16399 12.7803 7.31999 12.8403 7.71599 12.8403C8.21999 12.8403 9.07199 12.4923 9.04799 12.2883C9.04799 12.2283 8.95199 11.9643 8.83199 11.7003C8.67599 11.3523 8.63999 11.0883 8.68799 10.6803C8.81999 9.84035 8.79599 9.70835 8.38799 8.96435L8.01599 8.26835L7.61999 9.21635C7.12799 10.4403 7.11599 10.4403 6.76799 10.4403C6.49199 10.4403 6.47999 10.4043 6.47999 9.63635V8.82035L5.89199 8.85635C4.96799 8.92835 4.33199 8.43635 4.31999 7.64435C4.31999 7.00835 4.61999 6.45635 4.95599 6.50435C5.15999 6.52835 5.23199 6.63635 5.27999 7.02035L5.33999 7.50035L5.97599 7.53635C6.57599 7.57235 6.83999 7.40435 6.41999 7.24835C6.16799 7.15235 5.87999 6.50435 5.87999 6.03635C5.87999 5.72435 5.92799 5.64035 6.10799 5.64035C6.23999 5.64035 6.38399 5.68835 6.41999 5.76035C6.45599 5.83235 6.58799 5.88035 6.70799 5.88035C6.82799 5.88035 7.12799 6.01235 7.36799 6.18035C7.90799 6.55235 7.91999 6.55235 7.91999 6.18035C7.91999 5.62835 8.41199 4.57235 8.95199 3.97235C9.99599 2.80835 11.628 2.29235 13.152 2.62835C13.968 2.82035 15.084 3.55235 15.552 4.22435C16.02 4.87235 16.44 5.98835 16.44 6.57635C16.44 6.90035 16.476 6.97235 16.56 6.84035C16.656 6.69635 16.704 6.73235 16.824 7.05635C16.98 7.46435 17.34 7.57235 17.628 7.28435C17.76 7.16435 17.784 7.24835 17.736 7.77635C17.7 8.12435 17.712 8.43635 17.772 8.47235C17.82 8.49635 17.88 8.31635 17.904 8.07635C17.94 7.62035 17.94 7.62035 18.504 7.58435C19.056 7.54835 19.08 7.53635 19.2 7.06835C19.356 6.48035 19.704 6.43235 19.98 6.96035C20.292 7.56035 20.208 8.00435 19.704 8.53235C19.32 8.91635 19.14 9.00035 18.756 9.02435L18.276 9.03635L18.636 9.82835C19.332 11.3043 19.2 12.7803 18.3 13.7163C18.072 13.9563 17.88 14.1723 17.88 14.1963C17.88 14.2323 18.276 14.4483 18.756 14.6883C19.68 15.1443 20.424 15.2403 20.904 14.9883C21.468 14.6883 21.696 13.1763 21.24 12.7203C20.784 12.2643 20.04 12.5283 20.04 13.1403C20.04 13.4283 20.076 13.4763 20.64 13.9083C20.88 14.1003 20.916 14.1843 20.808 14.3643C20.508 14.8563 19.608 14.5803 19.272 13.8723C18.936 13.1643 19.02 12.5523 19.512 12.0003C20.256 11.1843 21.312 11.2203 22.116 12.1083C23.16 13.2603 22.74 15.6843 21.372 16.4043C20.652 16.7883 19.824 16.7763 18.516 16.3803L18.24 16.2963L18.504 16.8723C18.888 17.7243 18.9 19.6443 18.516 20.3403C17.976 21.3363 17.004 21.9843 15.708 22.2003C15.288 22.2603 14.916 22.3083 14.88 22.3083C14.844 22.2963 14.568 22.2483 14.268 22.2003ZM15.696 20.9163C15.744 20.5563 16.068 20.3043 16.2 20.5083C16.272 20.6283 16.404 20.5683 16.752 20.2443C17.172 19.8603 17.208 19.7763 17.256 19.0563C17.352 17.5203 16.632 16.5603 14.352 15.2403C13.656 14.8323 12.912 14.3403 12.708 14.1483C12.228 13.7043 11.964 13.7163 11.4 14.1963C11.148 14.4003 10.44 14.8443 9.83999 15.1803C8.66399 15.8043 8.13599 16.1523 8.56799 15.9963C8.68799 15.9603 8.44799 16.2723 8.02799 16.6923C7.60799 17.1243 7.22399 17.4123 7.17599 17.3523C7.03199 17.1483 6.68399 18.6003 6.75599 19.1163C6.97199 20.7123 9.25199 21.4563 10.26 20.2683C10.56 19.8963 10.668 19.5963 10.44 19.7403C10.236 19.8723 10.308 19.5723 10.548 19.3323C10.764 19.1163 10.764 19.0923 10.548 18.4083C10.428 18.0243 10.32 17.5563 10.32 17.3763C10.32 17.0643 10.356 17.0403 10.788 17.0403C11.148 17.0403 11.244 17.0883 11.232 17.2323C11.232 17.3403 11.292 17.4603 11.376 17.4843C11.448 17.5203 11.52 17.4603 11.52 17.3763C11.52 17.2803 11.688 16.9563 11.892 16.6443C12.552 15.6363 13.668 15.3483 14.832 15.8883C15.336 16.1163 15.492 16.2723 15.72 16.7283C15.912 17.1363 15.96 17.4003 15.912 17.6763C15.864 17.8923 15.816 18.1803 15.792 18.3243C15.732 18.8043 15.48 18.9723 14.892 18.9363L14.34 18.9003L14.304 18.3843C14.268 17.9043 14.28 17.8683 14.628 17.8083C15.444 17.6403 14.808 16.6803 13.896 16.6803C13.272 16.6803 12.876 16.9323 12.648 17.4723C12.336 18.2163 12.564 19.8603 12.972 19.8603C13.212 19.8603 13.32 20.0403 13.32 20.4843C13.32 20.9043 13.296 20.8923 14.46 21.1083C15.348 21.2763 15.648 21.2283 15.696 20.9163ZM3.46799 14.3403C3.97199 14.3403 4.05599 14.1363 3.70799 13.7883C3.52799 13.6083 3.43199 13.5723 3.35999 13.6803C3.28799 13.7883 3.20399 13.7883 3.01199 13.6923C2.77199 13.5603 2.75999 13.5843 2.75999 13.9803C2.75999 14.2443 2.71199 14.3883 2.63999 14.3403C2.56799 14.2923 2.51999 14.4243 2.51999 14.6283C2.51999 14.8323 2.56799 15.0003 2.63999 15.0003C2.69999 15.0003 2.73599 14.9283 2.72399 14.8563C2.69999 14.7723 2.74799 14.8323 2.80799 15.0003C2.93999 15.2763 2.93999 15.2643 2.99999 14.8203C3.05999 14.3643 3.08399 14.3403 3.46799 14.3403ZM17.172 12.3723C17.628 11.9163 17.64 11.2563 17.196 10.2603C17.028 9.86435 16.764 9.20435 16.62 8.78435L16.356 8.04035L15.9 8.96435C15.48 9.84035 15.456 9.91235 15.576 10.4523C15.708 11.0283 15.6 11.7963 15.36 11.9403C15.084 12.1083 15.276 12.3603 15.816 12.5283C16.632 12.7803 16.776 12.7563 17.172 12.3723ZM12.42 12.1203C12.468 12.0483 12.336 12.0003 12.12 12.0003C11.904 12.0003 11.772 12.0483 11.82 12.1203C11.856 12.1923 12 12.2403 12.12 12.2403C12.24 12.2403 12.384 12.1923 12.42 12.1203Z" fill="#FFC20F"/>
<path d="M8.24394 19.3795C7.93194 18.9955 7.61994 17.8435 7.76394 17.6155C7.78794 17.5555 8.02794 17.5195 8.29194 17.5195C8.72394 17.5195 8.75994 17.5435 8.75994 17.8555C8.75994 18.3595 8.93994 18.5155 9.56394 18.5875L10.1399 18.6595V19.1995V19.7395L9.35994 19.7635C8.60394 19.7875 8.56794 19.7755 8.24394 19.3795Z" fill="#FFC20F"/>
<path d="M3.98398 20.0893C4.03198 19.6453 4.59598 19.2253 4.85998 19.4413C5.25598 19.7653 5.01598 20.1253 4.22398 20.3413C3.97198 20.4133 3.94798 20.3893 3.98398 20.0893Z" fill="#FFC20F"/>
<path d="M3.69598 18.2759C3.57598 18.2519 3.47998 18.1199 3.47998 17.9999C3.47998 17.4839 4.58398 17.3399 4.65598 17.8439C4.69198 18.0479 4.61998 18.1559 4.37998 18.2399C4.05598 18.3599 4.03198 18.3719 3.69598 18.2759Z" fill="#FFC20F"/>
<path d="M17.0639 6.61389C16.9439 6.27789 16.9679 6.22989 17.3159 6.01389C17.5199 5.88189 17.7119 5.78589 17.7239 5.79789C17.7719 5.85789 17.3399 6.96189 17.2679 6.96189C17.2199 6.96189 17.1239 6.80589 17.0639 6.61389Z" fill="#FFC20F"/>
<path d="M4.27199 22.1855C3.79199 21.8015 3.56399 21.2855 3.64799 20.7335C3.71999 20.3375 3.69599 20.2775 3.47999 20.2775C3.34799 20.2775 3.23999 20.1935 3.23999 20.0975C3.23999 19.9535 3.32399 19.9295 3.55199 19.9895C3.77999 20.0495 3.89999 20.0015 4.03199 19.8095C4.30799 19.4255 4.65599 19.2695 4.87199 19.4495C5.13599 19.6655 5.06399 19.9775 4.71599 20.1455C4.52399 20.2415 4.29599 20.3495 4.19999 20.3975C3.94799 20.5175 3.91199 21.2855 4.13999 21.6335C4.54799 22.2575 5.51999 22.3415 6.08399 21.8135C6.38399 21.5375 6.52799 21.5615 6.40799 21.8855C6.19199 22.4375 4.83599 22.6295 4.27199 22.1855Z" fill="#2E194A"/>
<path d="M14.268 22.1986C13.32 22.0426 12.516 21.5266 11.928 20.7106L11.664 20.3506L11.484 20.7226C11.244 21.1786 10.524 21.8146 10.008 22.0306C9.39605 22.2826 8.16005 22.2466 7.35605 21.9466C6.44405 21.5986 5.62805 20.7826 5.34005 19.9306C5.12405 19.2826 5.13605 17.8786 5.35205 17.1706C5.42405 16.9186 5.41205 16.8946 5.20805 16.9666C4.57205 17.2186 3.75605 17.2786 3.15605 17.1226C2.59205 16.9666 2.54405 16.9786 2.64005 17.1466C2.68805 17.2546 2.85605 17.4466 2.98805 17.5666C3.21605 17.7706 3.28805 17.7826 3.69605 17.6506C4.29605 17.4466 4.60805 17.5186 4.65605 17.8546C4.70405 18.1906 4.27205 18.3706 3.68405 18.2746C3.32405 18.2266 3.22805 18.2626 3.06005 18.5266C2.90405 18.7546 2.86805 18.9706 2.92805 19.3186C2.96405 19.5826 2.95205 19.7986 2.89205 19.7986C2.60405 19.7986 2.54405 18.7306 2.82005 18.3106C2.98805 18.0586 2.97605 18.0226 2.70005 17.7586C2.54405 17.6146 2.34005 17.2906 2.26805 17.0506C2.19605 16.8106 2.02805 16.5106 1.90805 16.3786C1.38005 15.7906 1.16405 14.5906 1.45205 13.8346C1.51205 13.6546 1.72805 13.3306 1.92005 13.1386L2.28005 12.7666L1.98005 11.2786C1.63205 9.51459 1.62005 9.35859 1.86005 9.35859C2.01605 9.35859 2.22005 9.91059 2.79605 11.9386C2.95205 12.5146 2.98805 12.5386 3.44405 12.5986C4.12805 12.6946 4.50005 12.9826 4.74005 13.6066C4.90805 14.0506 4.92005 14.2066 4.80005 14.5786C4.62005 15.1306 4.27205 15.3466 3.51605 15.3706C2.83205 15.3946 2.77205 15.5266 3.39605 15.6466C3.92405 15.7426 4.59605 15.5026 5.56805 14.8426L6.36005 14.3146L6.04805 14.0266C5.60405 13.6306 5.16005 12.6346 5.16005 12.0466C5.16005 11.7826 5.24405 11.2786 5.35205 10.9306C5.52005 10.3426 5.52005 10.2346 5.32805 9.51459C5.18405 8.99859 5.04005 8.69859 4.87205 8.61459C4.72805 8.54259 4.56005 8.39859 4.47605 8.29059C4.24805 7.99059 4.29605 7.18659 4.56005 6.74259C4.80005 6.34659 4.80005 6.32259 4.59605 5.66259C4.47605 5.29059 4.34405 4.95459 4.28405 4.94259C4.11605 4.85859 3.84005 4.21059 3.84005 3.86259C3.84005 3.67059 3.99605 3.28659 4.18805 2.99859C4.51205 2.51859 4.56005 2.12259 4.30805 1.96659C4.09205 1.83459 4.20005 1.55859 4.46405 1.55859C4.98005 1.55859 5.77205 2.06259 6.12005 2.60259C6.56405 3.28659 6.66005 3.83859 6.43205 4.36659C6.31205 4.65459 6.27605 4.95459 6.33605 5.29059C6.40805 5.72259 6.46805 5.79459 6.87605 5.93859C7.12805 6.02259 7.42805 6.17859 7.54805 6.28659C7.83605 6.55059 7.92005 6.52659 7.92005 6.17859C7.92005 5.62659 8.41205 4.57059 8.95205 3.97059C9.99605 2.80659 11.628 2.29059 13.152 2.62659C13.968 2.81859 15.084 3.55059 15.552 4.22259C16.008 4.85859 16.44 5.97459 16.452 6.57459C16.452 6.81459 16.488 6.94659 16.524 6.86259C16.548 6.79059 16.632 6.74259 16.68 6.77859C16.74 6.81459 16.74 6.99459 16.668 7.17459C16.488 7.64259 16.62 8.30259 17.184 9.59859C17.748 10.9186 17.844 11.4346 17.64 12.0466C17.46 12.5986 17.064 12.8746 16.44 12.8626C16.176 12.8506 15.984 12.8986 16.02 12.9466C16.044 13.0066 16.428 13.2706 16.86 13.5346L17.64 14.0266L17.988 13.7386C18.792 13.0546 19.092 11.6026 18.672 10.4386C18.36 9.59859 17.892 8.87859 17.664 8.87859C17.292 8.87859 17.184 8.66259 17.292 8.09859C17.448 7.27059 18 6.57459 18 7.19859C18 7.40259 18.084 7.43859 18.468 7.43859H18.948L19.08 6.76659C19.164 6.40659 19.188 6.07059 19.152 6.03459C19.116 5.98659 19.08 6.04659 19.08 6.15459C19.08 6.31059 18.96 6.35859 18.54 6.35859C18.24 6.35859 18 6.33459 18 6.31059C18 6.27459 18.06 6.10659 18.12 5.93859C18.228 5.66259 18.276 5.63859 18.42 5.75859C18.576 5.89059 18.6 5.85459 18.6 5.57859C18.6 5.26659 18.612 5.25459 19.116 5.33859C19.812 5.45859 19.932 5.57859 19.848 6.11859C19.8 6.41859 19.836 6.68259 19.968 6.93459C20.304 7.58259 20.22 7.99059 19.632 8.60259C19.152 9.09459 19.056 9.14259 18.672 9.08259L18.264 9.02259L18.636 9.81459C19.332 11.3026 19.212 12.7786 18.3 13.7146C18.072 13.9546 17.88 14.1706 17.88 14.1946C17.88 14.2306 18.276 14.4466 18.756 14.6866C19.68 15.1426 20.424 15.2386 20.904 14.9866C21.468 14.6866 21.696 13.1746 21.24 12.7186C20.784 12.2626 20.04 12.5266 20.04 13.1386C20.04 13.4266 20.076 13.4746 20.64 13.9066C20.88 14.0986 20.916 14.1826 20.808 14.3626C20.508 14.8546 19.608 14.5786 19.272 13.8706C18.936 13.1626 19.02 12.5506 19.512 11.9986C20.256 11.1826 21.312 11.2186 22.116 12.1066C23.16 13.2586 22.74 15.6826 21.372 16.4026C20.652 16.7866 19.824 16.7746 18.516 16.3786L18.24 16.2946L18.504 16.8706C18.888 17.7226 18.9 19.6426 18.516 20.3386C17.976 21.3346 17.004 21.9826 15.708 22.1986C15.288 22.2586 14.916 22.3066 14.88 22.3066C14.844 22.2946 14.568 22.2466 14.268 22.1986ZM10.02 21.7426C10.476 21.5266 11.136 20.9146 11.34 20.5066C11.604 20.0146 11.448 18.0226 11.124 17.6746C10.992 17.5186 10.836 17.3986 10.788 17.3986C10.74 17.3986 10.836 17.8066 10.992 18.3106C11.244 19.1506 11.268 19.5586 11.04 19.5586C10.98 19.5586 10.8 19.7986 10.632 20.0866C10.008 21.1666 8.70005 21.3826 7.50005 20.6266C6.44405 19.9546 6.22805 18.7426 6.91205 17.3146C7.30805 16.4986 7.87205 16.0066 9.48005 15.1186C10.212 14.6986 10.98 14.2306 11.184 14.0626L11.544 13.7506L11.064 13.6186C10.8 13.5346 10.416 13.3546 10.224 13.2106C10.02 13.0666 9.82805 13.0066 9.79205 13.0546C9.75605 13.1146 9.10805 13.5826 8.35205 14.0866C6.22805 15.5026 5.52005 16.5106 5.42405 18.2506C5.35205 19.4626 5.54405 20.1346 6.13205 20.8066C7.10405 21.9106 8.84405 22.3306 10.02 21.7426ZM16.344 21.8386C17.112 21.6226 17.904 20.9746 18.276 20.2666C18.6 19.6666 18.624 19.5346 18.576 18.5386C18.492 16.6426 17.808 15.6226 15.528 13.9786L14.292 13.1026L13.764 13.3666C13.476 13.5226 13.104 13.6786 12.948 13.7266L12.66 13.7986L13.02 14.0986C13.224 14.2666 13.992 14.7586 14.736 15.2026C16.332 16.1506 17.064 16.8706 17.34 17.7946C17.736 19.1146 17.484 20.0746 16.596 20.6746C16.284 20.8786 16.08 21.1066 16.08 21.2386C16.08 21.6586 15.732 21.7066 14.364 21.4906C13.032 21.2746 12.816 21.1546 12.864 20.6986C12.876 20.5666 12.756 20.1946 12.6 19.8586C12 18.6586 12.288 16.9666 13.14 16.5826C13.848 16.2586 14.772 16.4866 15.072 17.0506C15.312 17.5186 15.288 17.7106 14.928 18.0466C14.616 18.3346 14.616 18.5986 14.94 18.5986C15.024 18.5986 15.24 18.4306 15.408 18.2266C16.284 17.1946 15.12 15.7186 13.548 15.8626C12.852 15.9346 12.456 16.1746 12.06 16.7746C11.1 18.2386 11.604 20.5906 13.092 21.5026C13.98 22.0546 15.132 22.1746 16.344 21.8386ZM15.648 20.0146L15.732 19.0786H15.012C14.616 19.0786 14.256 19.0186 14.22 18.9466C14.04 18.6706 13.86 18.9586 13.668 19.8346C13.56 20.3386 13.476 20.7586 13.488 20.7706C13.608 20.8426 15.444 21.0586 15.492 21.0106C15.54 20.9746 15.612 20.5186 15.648 20.0146ZM9.64805 20.7106C10.008 20.5666 10.56 20.0146 10.56 19.7986C10.56 19.7506 10.248 19.7866 9.87605 19.8706C9.49205 19.9666 9.09605 20.0386 9.00005 20.0386C8.66405 20.0386 7.89605 18.9946 7.82405 18.4426C7.78805 18.1066 7.65605 17.8306 7.41605 17.6266L7.08005 17.3026L6.90005 17.9146C6.67205 18.6706 6.67205 19.0906 6.88805 19.5946C7.30805 20.5906 8.64005 21.1306 9.64805 20.7106ZM16.92 20.1106C17.148 19.8586 17.22 19.6306 17.256 19.0306C17.352 17.5186 16.62 16.5586 14.352 15.2386C13.656 14.8306 12.912 14.3386 12.708 14.1466C12.228 13.7026 11.964 13.7146 11.4 14.1946C11.148 14.3986 10.44 14.8426 9.84005 15.1786C8.70005 15.7906 8.14805 16.1506 8.54405 16.0066C8.67605 15.9706 8.79605 16.0306 8.88005 16.1986C9.06005 16.5226 9.38405 16.4626 9.48005 16.0786C9.56405 15.6946 10.008 15.6346 10.812 15.8986C11.52 16.1386 11.628 16.3186 11.352 16.8826C11.16 17.2906 11.184 17.5186 11.412 17.5186C11.472 17.5186 11.52 17.4466 11.52 17.3626C11.52 17.2666 11.688 16.9546 11.892 16.6426C12.552 15.6346 13.668 15.3466 14.832 15.8866C15.336 16.1146 15.492 16.2706 15.72 16.7266C15.972 17.2666 15.984 17.5426 15.78 18.2026C15.708 18.4186 15.756 18.4786 16.02 18.5506L16.344 18.6346L16.26 19.6426C16.176 20.6146 16.176 20.6626 16.392 20.5426C16.524 20.4706 16.752 20.2786 16.92 20.1106ZM13.2 19.1146C13.356 18.3946 13.416 18.2986 13.68 18.2626C13.836 18.2386 14.1 18.1066 14.268 17.9866C14.424 17.8666 14.652 17.7586 14.772 17.7586C15.096 17.7586 15.06 17.3266 14.7 16.9786C14.484 16.7506 14.28 16.6786 13.884 16.6786C12.912 16.6786 12.396 17.4106 12.516 18.6466C12.576 19.3066 12.78 19.9186 12.936 19.9186C12.984 19.9186 13.104 19.5586 13.2 19.1146ZM9.78005 19.1986C9.78005 19.0786 9.61205 18.9946 9.20405 18.9466C8.56805 18.8746 8.40005 18.7186 8.40005 18.2026C8.40005 17.9746 8.35205 17.8786 8.25605 17.9026C7.89605 18.0226 8.01605 18.8146 8.42405 19.1986C8.76005 19.5106 9.78005 19.4986 9.78005 19.1986ZM10.56 18.9946C10.56 18.9346 10.476 18.6346 10.38 18.3106C10.284 17.9866 10.2 17.5186 10.2 17.2546C10.2 16.8826 10.248 16.7986 10.428 16.7986C10.812 16.7986 10.836 16.5946 10.476 16.4746C10.2 16.3786 10.116 16.4026 10.02 16.6066C9.91205 16.8226 9.76805 16.8586 9.14405 16.8706C8.71205 16.8826 8.31605 16.9546 8.20805 17.0506C8.01605 17.2066 8.04005 17.2186 8.41205 17.2786C8.77205 17.3266 8.82005 17.3866 8.89205 17.7946C8.98805 18.3706 9.01205 18.3946 9.69605 18.4786C10.164 18.5266 10.272 18.5866 10.296 18.8146C10.332 19.0546 10.56 19.2106 10.56 18.9946ZM4.35605 17.8666C4.26005 17.7706 4.16405 17.7706 3.99605 17.8666C3.80405 17.9746 3.82805 17.9866 4.14005 17.9986C4.39205 17.9986 4.45205 17.9626 4.35605 17.8666ZM5.17205 16.7266C5.42405 16.6186 5.66405 16.4266 5.70005 16.3066C5.84405 15.8506 7.12805 14.6266 8.14805 13.9546C9.51605 13.0666 9.75605 12.8506 9.58805 12.6346C9.51605 12.5506 9.40805 12.4786 9.37205 12.4786C9.32405 12.4786 8.36405 13.1386 7.24805 13.9306C6.13205 14.7346 5.00405 15.4906 4.74005 15.6106C4.18805 15.8626 3.12005 15.9106 2.90405 15.6946C2.78405 15.5746 2.72405 15.5746 2.64005 15.7186C2.54405 15.8746 2.47205 16.6786 2.55605 16.6786C2.56805 16.6786 2.79605 16.7626 3.06005 16.8586C3.61205 17.0626 4.45205 17.0146 5.17205 16.7266ZM21.504 16.0546C22.704 15.1306 22.824 12.7786 21.708 11.9866C20.676 11.2546 19.32 11.8426 19.32 13.0186C19.32 13.5346 19.584 14.0986 19.908 14.2786C20.256 14.4586 20.64 14.4226 20.64 14.2186C20.64 14.1226 20.58 14.0386 20.52 14.0386C20.448 14.0386 20.256 13.9066 20.1 13.7386C19.728 13.3786 19.716 12.8866 20.064 12.5146C20.424 12.1306 20.928 12.1546 21.372 12.5866C21.66 12.8746 21.72 13.0426 21.72 13.4986C21.72 14.1946 21.48 14.7586 21.048 15.1066C20.76 15.3346 20.592 15.3706 20.076 15.3346C19.308 15.2626 18.576 14.9026 16.536 13.5826C15.696 13.0426 14.964 12.5986 14.904 12.5986C14.844 12.5986 14.724 12.6706 14.652 12.7546C14.496 12.9586 14.688 13.1386 15.9 13.9906C16.368 14.3026 17.052 14.8906 17.436 15.2746C18.324 16.1746 19.02 16.4506 20.232 16.4146C20.94 16.3786 21.156 16.3186 21.504 16.0546ZM2.37605 15.0706C2.30405 14.9506 2.29205 14.4946 2.34005 14.0266C2.43605 13.0906 2.35205 13.0066 1.86005 13.5826C1.56005 13.9306 1.53605 14.0386 1.58405 14.7586C1.60805 15.2746 1.70405 15.6826 1.84805 15.9106L2.07605 16.2586L2.28005 15.7786C2.42405 15.4426 2.46005 15.2386 2.37605 15.0706ZM4.35605 14.9026C5.00405 14.1826 4.51205 13.0306 3.45605 12.7786C3.16805 12.7066 3.12005 12.7306 3.12005 12.9466C3.12005 13.1266 3.25205 13.2706 3.54005 13.4026C4.14005 13.6906 4.30805 14.5186 3.78005 14.6146C3.46805 14.6746 3.31205 14.8306 3.40805 14.9866C3.54005 15.1906 4.14005 15.1426 4.35605 14.9026ZM2.66405 14.6386C2.64005 14.4466 2.59205 14.2786 2.56805 14.2786C2.54405 14.2786 2.52005 14.4466 2.52005 14.6386C2.52005 14.8426 2.56805 14.9986 2.61605 14.9986C2.67605 14.9986 2.70005 14.8426 2.66405 14.6386ZM3.92405 14.1946C3.98405 14.0386 3.50405 13.4986 3.39605 13.5946C3.36005 13.6306 3.37205 13.8346 3.42005 14.0386C3.50405 14.4106 3.82805 14.5066 3.92405 14.1946ZM7.60805 13.4146L8.07605 13.0786H7.66805C7.44005 13.0786 7.14005 12.9946 6.99605 12.8986C6.69605 12.6946 6.43205 11.9746 6.51605 11.6386C6.55205 11.4826 6.48005 11.3506 6.30005 11.2306C6.14405 11.1226 5.98805 10.9306 5.94005 10.7986C5.82005 10.4266 5.66405 10.5106 5.53205 11.0146C5.23205 12.0706 5.46005 13.0546 6.14405 13.7626C6.57605 14.2066 6.49205 14.2186 7.60805 13.4146ZM13.62 13.2226C14.28 12.8866 15.216 11.9026 15.36 11.3986C15.444 11.0986 15.444 10.8106 15.348 10.4266C15.204 9.89859 15.216 9.83859 15.672 8.92659C16.116 8.02659 16.14 7.93059 16.14 6.83859C16.128 5.48259 15.876 4.82259 15 3.95859C14.124 3.07059 13.476 2.81859 12.12 2.81859C10.836 2.81859 10.356 2.99859 9.45605 3.81459C8.79605 4.41459 8.43605 5.01459 8.20805 5.90259C7.95605 6.88659 8.06405 7.73859 8.55605 8.74659C8.89205 9.45459 8.94005 9.64659 8.94005 10.5706V11.5906L9.46805 12.2266C9.96005 12.8026 10.56 13.2106 11.28 13.4506C11.796 13.6186 13.104 13.4986 13.62 13.2226ZM8.64005 12.6106C9.12005 12.3586 9.12005 12.3466 8.83205 11.6986C8.67605 11.3506 8.64005 11.0866 8.68805 10.6786C8.82005 9.83859 8.79605 9.70659 8.38805 8.96259L8.01605 8.26659L7.59605 9.26259C6.63605 11.5186 6.55205 11.9866 6.97205 12.5266C7.16405 12.7786 7.32005 12.8386 7.71605 12.8386C7.99205 12.8386 8.41205 12.7426 8.64005 12.6106ZM17.172 12.3706C17.628 11.9146 17.64 11.2546 17.196 10.2586C17.028 9.86259 16.764 9.20259 16.62 8.78259L16.356 8.03859L15.9 8.96259C15.48 9.83859 15.456 9.91059 15.576 10.4506C15.708 11.0266 15.6 11.7946 15.36 11.9386C15.084 12.1066 15.276 12.3586 15.816 12.5266C16.632 12.7786 16.776 12.7546 17.172 12.3706ZM7.41605 9.14259C7.62005 8.63859 7.83605 8.05059 7.87205 7.83459C7.98005 7.28259 7.72805 6.64659 7.28405 6.37059C6.90005 6.13059 6.24005 5.92659 6.24005 6.03459C6.24005 6.21459 6.61205 6.76659 6.84005 6.92259C7.08005 7.09059 7.09205 7.17459 7.00805 7.60659C6.91205 8.15859 6.86405 10.0786 6.96005 10.0786C6.99605 10.0786 7.20005 9.65859 7.41605 9.14259ZM19.716 8.26659C19.932 8.00259 20.004 7.13859 19.812 7.03059C19.752 6.99459 19.632 7.18659 19.536 7.46259C19.344 8.07459 19.056 8.27859 18.72 8.06259C18.444 7.89459 18.24 7.96659 18.24 8.21859C18.24 8.68659 19.332 8.72259 19.716 8.26659ZM6.09605 8.37459C6.39605 8.07459 6.26405 7.90659 5.76005 7.99059C5.16005 8.08659 4.92005 7.90659 4.92005 7.36659C4.92005 6.81459 4.72805 6.75459 4.56005 7.24659C4.45205 7.58259 4.46405 7.72659 4.60805 8.01459C4.71605 8.21859 4.86005 8.39859 4.94405 8.43459C5.24405 8.55459 5.95205 8.51859 6.09605 8.37459ZM5.76005 5.43459C5.76005 5.23059 5.42405 5.08659 5.28005 5.23059C5.23205 5.29059 5.23205 5.47059 5.29205 5.62659C5.38805 5.85459 5.43605 5.87859 5.58005 5.75859C5.67605 5.67459 5.76005 5.53059 5.76005 5.43459ZM5.70005 4.07859C5.82005 3.94659 5.85605 3.83859 5.78405 3.83859C5.70005 3.83859 5.64005 3.65859 5.64005 3.44259C5.64005 3.16659 5.54405 2.95059 5.34005 2.75859L5.04005 2.48259V2.74659C5.04005 2.90259 4.93205 3.15459 4.80005 3.32259C4.52405 3.67059 4.50005 3.97059 4.70405 4.17459C4.93205 4.40259 5.46005 4.34259 5.70005 4.07859Z" fill="#2E194A"/>
<path d="M11.6762 12.5847C11.4242 12.5007 10.9202 11.9247 10.9202 11.7447C10.9202 11.6847 11.4602 11.6367 12.1202 11.6367C12.7802 11.6367 13.3202 11.6607 13.3202 11.6967C13.3202 11.7207 13.2602 11.8767 13.1882 12.0327C12.9722 12.5247 12.2282 12.7887 11.6762 12.5847Z" fill="#2E194A"/>
<path d="M9.95996 10.4633C9.95996 10.4033 10.068 10.2593 10.188 10.1513C10.512 9.85129 11.124 9.86329 11.436 10.1753C11.772 10.5233 11.604 10.6553 11.148 10.3913C10.812 10.1993 10.764 10.1993 10.5 10.3673C10.176 10.5833 9.95996 10.6193 9.95996 10.4633Z" fill="#2E194A"/>
<path d="M12.72 10.3921C12.72 9.94809 13.848 9.79209 14.208 10.1881C14.496 10.5001 14.256 10.6201 13.86 10.3681C13.596 10.1881 13.512 10.1881 13.224 10.3321C13.044 10.4161 12.864 10.5121 12.816 10.5361C12.756 10.5601 12.72 10.5001 12.72 10.3921Z" fill="#2E194A"/>
<path d="M10.0801 9.2403C10.0801 9.0963 10.5001 8.8683 10.6081 8.9643C10.7041 9.0723 10.4401 9.3603 10.2481 9.3603C10.1521 9.3603 10.0801 9.3123 10.0801 9.2403Z" fill="#2E194A"/>
<path d="M13.68 9.11814C13.584 9.05814 13.548 8.97414 13.584 8.92614C13.716 8.80614 14.304 8.98614 14.22 9.11814C14.124 9.26214 13.908 9.26214 13.68 9.11814Z" fill="#2E194A"/>
<path d="M16.98 6.36964C16.944 6.30964 16.98 6.21364 17.064 6.16564C17.148 6.11764 17.34 5.99764 17.496 5.90164C17.892 5.64964 17.82 5.91364 17.412 6.21364C17.208 6.35764 17.028 6.42964 16.98 6.36964Z" fill="#2E194A"/>
<path d="M14.0881 21.3357C14.1601 21.2877 14.0521 21.2397 13.8361 21.2397C12.9121 21.2397 12.9121 21.2037 13.5001 18.6237C13.5481 18.4077 13.6201 18.3597 13.8121 18.4197C13.9801 18.4797 14.1481 18.4197 14.3281 18.2517L14.5921 18.0117L14.5801 18.3357C14.5801 18.6357 14.6161 18.6597 15.0601 18.6717C16.2001 18.6957 16.0921 18.5517 16.0561 20.0877L16.0201 21.4437L14.9881 21.4317C14.4121 21.4317 14.0041 21.3837 14.0881 21.3357Z" fill="#199ED7"/>
<path d="M8.75994 19.6809C8.75994 19.5609 8.85594 19.5369 9.53994 19.5129C9.83994 19.5009 9.89994 19.4529 9.89994 19.2009C9.89994 18.9249 9.85194 18.9009 9.33594 18.9009C9.03594 18.9009 8.80794 18.8529 8.85594 18.7929C8.89194 18.7329 8.83194 18.7209 8.71194 18.7569C8.60394 18.8049 8.53194 18.7929 8.55594 18.7449C8.59194 18.6969 8.57994 18.4449 8.53194 18.1809C8.45994 17.7609 8.41194 17.7009 8.17194 17.7369C7.88394 17.7849 7.43994 17.4609 7.43994 17.2209C7.43994 17.0529 8.33994 16.2009 8.50794 16.2009C8.56794 16.2009 8.67594 16.2849 8.75994 16.3929C8.98794 16.6569 9.51594 16.5609 9.65994 16.2369C9.74394 16.0449 9.87594 15.9609 10.1159 15.9609C10.5959 15.9609 11.2799 16.2729 11.2799 16.5009C11.2799 16.8369 11.0399 17.1609 10.7999 17.1609C10.6679 17.1609 10.5599 17.2449 10.5599 17.3409C10.5599 17.4369 10.6199 17.5209 10.6919 17.5209C10.7639 17.5209 10.7879 17.6289 10.7399 17.7729C10.6799 17.9409 10.7039 18.0009 10.7759 17.9529C10.8479 17.9049 10.8719 17.9769 10.8239 18.1449C10.7879 18.3249 10.7999 18.3729 10.9079 18.3129C11.0159 18.2409 11.0279 18.3129 10.9679 18.5529C10.9199 18.7329 10.9319 18.8529 10.9919 18.8049C11.0519 18.7689 11.0999 18.9249 11.0999 19.1409C11.0999 19.3569 11.0639 19.5129 11.0159 19.4889C10.9799 19.4649 10.5599 19.5249 10.0799 19.6209C9.08394 19.8369 8.75994 19.8489 8.75994 19.6809Z" fill="#199ED7"/>
<path d="M2.81997 14.5313C2.68797 14.1113 1.94397 10.1393 1.99197 10.0913C2.05197 10.0313 2.03997 9.99527 2.75997 12.4553C3.09597 13.5953 3.33597 14.5793 3.29997 14.6513C3.17997 14.8433 2.90397 14.7713 2.81997 14.5313Z" fill="#199ED7"/>
<path d="M17.964 8.75904C17.724 8.71104 17.496 8.65104 17.46 8.61504C17.364 8.51904 17.616 7.31903 17.892 6.57503C18.132 5.93903 18.168 5.89104 18.456 5.96304C18.732 6.02304 18.744 6.01103 18.684 5.73503C18.6 5.42303 18.612 5.42304 19.104 5.54304C19.38 5.60304 19.632 5.67504 19.668 5.69904C19.692 5.73504 19.632 6.19103 19.524 6.73103C19.416 7.27103 19.344 7.73904 19.368 7.78704C19.392 7.82304 19.356 7.91904 19.272 7.97904C19.116 8.12304 18.696 8.17104 18.78 8.03904C18.912 7.83504 18.336 7.77504 18.144 7.96704C18 8.09904 18 8.15904 18.096 8.15904C18.18 8.15904 18.216 8.20704 18.18 8.27904C18.144 8.33904 18.288 8.50704 18.504 8.63904C18.936 8.90304 18.816 8.92704 17.964 8.75904Z" fill="#199ED7"/>
<path d="M4.12793 3.99655C4.07993 3.73255 4.10393 3.48055 4.18793 3.34855C4.35593 3.07255 4.35593 2.96455 4.19993 3.06055C4.00793 3.18055 4.06793 3.04855 4.28393 2.86855C4.46393 2.72455 4.47593 2.72455 4.37993 2.88055C4.28393 3.03655 4.29593 3.03655 4.48793 2.88055C4.65593 2.74855 4.69193 2.60455 4.63193 2.24455C4.54793 1.74055 4.57193 1.72855 5.20793 1.99255C5.38793 2.05255 5.41193 2.04055 5.33993 1.92055C5.26793 1.81255 5.29193 1.78855 5.38793 1.84855C5.47193 1.90855 5.50793 1.96855 5.47193 2.00455C5.43593 2.04055 5.56793 2.25655 5.77193 2.49655C5.97593 2.72455 6.10793 2.98855 6.07193 3.08455C6.03593 3.18055 6.04793 3.22855 6.10793 3.19255C6.25193 3.09655 6.32393 3.46855 6.23993 3.96055C6.19193 4.33255 6.13193 4.38055 5.78393 4.41655C5.45993 4.45255 5.36393 4.40455 5.31593 4.20055L5.24393 3.94855L5.07593 4.20055C4.96793 4.34455 4.77593 4.44055 4.55993 4.44055C4.24793 4.44055 4.19993 4.39255 4.12793 3.99655Z" fill="#199ED7"/>
<path d="M6.04815 21.0966C5.85615 20.8806 5.78415 20.7726 5.89215 20.8566C6.00015 20.9286 6.10815 20.9886 6.13215 20.9646C6.15615 20.9526 6.16815 20.9646 6.14415 20.9886C6.13215 21.0126 6.20415 21.1446 6.32415 21.2646C6.43215 21.3846 6.49215 21.4806 6.45615 21.4806C6.43215 21.4806 6.25215 21.3126 6.04815 21.0966Z" fill="#543291"/>
<path d="M10.776 21.2281C11.016 20.9401 11.472 20.7841 11.328 21.0241C11.28 21.0841 11.22 21.1081 11.184 21.0721C11.148 21.0241 10.98 21.1201 10.812 21.2641L10.5 21.5401L10.776 21.2281Z" fill="#543291"/>
<path d="M3.62402 20.9982C3.62402 20.7702 3.64802 20.6742 3.68402 20.7942C3.70802 20.9022 3.70802 21.0942 3.68402 21.2142C3.64802 21.3222 3.62402 21.2262 3.62402 20.9982Z" fill="#543291"/>
<path d="M16.728 20.4731C16.74 20.3771 16.788 20.2451 16.836 20.1971C16.884 20.1491 17.016 20.1011 17.112 20.0891C17.22 20.0771 17.268 20.1011 17.22 20.1371C17.172 20.1851 17.076 20.2211 17.004 20.2211C16.92 20.2211 16.86 20.2811 16.86 20.3651C16.86 20.4371 16.824 20.5331 16.776 20.5811C16.74 20.6291 16.716 20.5811 16.728 20.4731Z" fill="#543291"/>
<path d="M7.02008 20.2936C6.84008 20.0896 6.84008 20.0656 7.00808 20.0896C7.27208 20.1256 7.48808 20.3536 7.34408 20.4496C7.28408 20.4856 7.14008 20.4136 7.02008 20.2936Z" fill="#543291"/>
<path d="M8.76001 19.6678C8.76001 19.5238 9.26401 19.4518 9.51601 19.5598C9.79201 19.6678 9.75601 19.6918 9.14401 19.7158C8.94001 19.7278 8.76001 19.7038 8.76001 19.6678Z" fill="#543291"/>
<path d="M14.4841 18.6373C14.3641 18.5293 14.3761 18.1453 14.5081 18.0733C14.5561 18.0373 14.5801 18.1453 14.5441 18.3253C14.4961 18.5533 14.5201 18.6133 14.6401 18.5413C14.7481 18.4813 14.7721 18.4933 14.7121 18.5773C14.6161 18.7453 14.5921 18.7453 14.4841 18.6373Z" fill="#543291"/>
<path d="M16.2481 16.5366L15.9001 16.1406L16.2961 16.4886C16.6561 16.8246 16.7401 16.9206 16.6441 16.9206C16.6201 16.9206 16.4521 16.7406 16.2481 16.5366Z" fill="#543291"/>
<path d="M9.18003 16.5943C9.31203 16.5583 9.50403 16.4743 9.60003 16.3903C9.75603 16.2703 9.75603 16.2823 9.61203 16.4743C9.52803 16.5823 9.33603 16.6663 9.19203 16.6663C8.95203 16.6543 8.95203 16.6423 9.18003 16.5943Z" fill="#543291"/>
<path d="M3.2641 14.3888C3.3361 14.1968 3.4081 14.0528 3.4321 14.0768C3.4921 14.1368 3.2761 14.7608 3.1921 14.7608C3.1561 14.7608 3.1921 14.5928 3.2641 14.3888Z" fill="#543291"/>
<path d="M1.56006 13.5243C1.56006 13.5003 1.72806 13.3323 1.94406 13.1283C2.14806 12.9363 2.26806 12.8643 2.20806 12.9603C2.14806 13.0563 2.10006 13.2003 2.10006 13.2603C2.10006 13.3323 2.05206 13.3803 1.98006 13.3803C1.92006 13.3803 1.78806 13.4283 1.71606 13.4763C1.63206 13.5363 1.56006 13.5603 1.56006 13.5243Z" fill="#543291"/>
<path d="M11.7361 12.6371C11.3161 12.5291 11.6281 12.1211 12.1321 12.1211C12.4321 12.1211 12.8281 12.4211 12.6961 12.5411C12.6001 12.6371 11.9521 12.7091 11.7361 12.6371Z" fill="#543291"/>
<path d="M2.00401 10.3579C1.95601 10.3219 1.92001 10.1659 1.93201 10.0339C1.93201 9.80593 1.94401 9.80593 2.05201 10.0699C2.17201 10.3579 2.14801 10.5019 2.00401 10.3579Z" fill="#543291"/>
<path d="M18.4081 8.77129C18.4681 8.67529 19.0801 8.73529 19.0801 8.83129C19.0801 8.85529 18.9121 8.87929 18.7081 8.87929C18.5161 8.87929 18.3721 8.83129 18.4081 8.77129Z" fill="#543291"/>
<path d="M18.816 8.02747C18.864 7.97947 19.032 7.90747 19.188 7.85947C19.428 7.78747 19.452 7.79947 19.32 7.94347C19.236 8.02747 19.068 8.11147 18.948 8.11147C18.816 8.11147 18.768 8.07547 18.816 8.02747Z" fill="#543291"/>
<path d="M4.90794 5.91559C4.66794 5.29159 4.63194 4.91959 4.81194 4.91959C4.90794 4.91959 4.84794 4.84759 4.69194 4.76359C4.35594 4.59559 4.11594 4.24759 4.23594 4.12759C4.28394 4.07959 4.39194 4.13959 4.48794 4.25959C4.61994 4.45159 4.72794 4.46359 5.29194 4.36759C5.91594 4.25959 5.93994 4.24759 6.01194 3.81559C6.04794 3.57559 6.03594 3.39559 5.97594 3.43159C5.92794 3.46759 5.87994 3.37159 5.89194 3.21559C5.89194 3.05959 5.92794 3.01159 5.96394 3.09559C5.98794 3.16759 6.07194 3.21559 6.13194 3.16759C6.34794 3.03559 6.28794 4.18759 6.05994 4.43959C5.95194 4.55959 5.92794 4.67959 5.99994 4.79959C6.16794 5.05159 6.14394 5.92759 5.97594 6.09559C5.89194 6.17959 5.65194 6.23959 5.43594 6.23959C5.11194 6.23959 5.01594 6.17959 4.90794 5.91559Z" fill="#543291"/>
<path d="M6.28795 5.71038C6.25195 5.61438 6.23995 5.41038 6.26395 5.25438C6.29995 5.05038 6.32395 5.09838 6.37195 5.43438C6.43195 5.89038 6.39595 5.99838 6.28795 5.71038Z" fill="#543291"/>
<path d="M8.748 4.16584C8.844 4.05784 8.94 3.98584 8.976 4.02184C9.012 4.05784 9.156 3.98584 9.288 3.87784C9.54 3.66184 9.54 3.66184 9.312 3.93784C9.18 4.08184 9.06 4.17784 9.024 4.14184C8.988 4.10584 8.88 4.15384 8.772 4.23784C8.604 4.36984 8.604 4.35784 8.748 4.16584Z" fill="#543291"/>
<path d="M4.77598 3.672C4.94398 3.3 4.97998 3.276 5.11198 3.456C5.31598 3.732 5.44798 3.564 5.27998 3.24C5.18398 3.048 5.17198 2.94 5.26798 2.844C5.45998 2.652 5.55598 2.82 5.63998 3.48L5.71198 4.08H5.14798H4.58398L4.77598 3.672Z" fill="#543291"/>
<path d="M4.18797 2.96529C4.25997 2.89329 4.40397 2.82129 4.51197 2.80929C4.65597 2.78529 4.67997 2.80929 4.57197 2.91729C4.49997 2.98929 4.35597 3.06129 4.24797 3.07329C4.10397 3.09729 4.07997 3.07329 4.18797 2.96529Z" fill="#543291"/>
<path d="M8.79611 21.0336C8.90411 21.0096 9.09611 21.0096 9.21611 21.0336C9.32411 21.0696 9.2281 21.0936 9.0001 21.0936C8.7721 21.0936 8.67611 21.0696 8.79611 21.0336Z" fill="#171A19"/>
<path d="M5.31616 18.7193C5.31616 18.3593 5.34016 18.2033 5.36416 18.3953C5.38816 18.5753 5.38816 18.8633 5.36416 19.0553C5.34016 19.2353 5.31616 19.0793 5.31616 18.7193Z" fill="#171A19"/>
<path d="M17.0882 15.2271C16.9082 15.0471 16.8362 14.8791 16.8962 14.8311C17.0282 14.7591 17.2202 14.9631 17.2202 15.1791C17.2202 15.2511 17.2802 15.2991 17.3642 15.2991C17.4482 15.2991 17.5682 15.3591 17.6402 15.4311C17.7362 15.5271 17.7122 15.5631 17.5922 15.5631C17.4842 15.5631 17.2682 15.4071 17.0882 15.2271Z" fill="#171A19"/>
<path d="M1.46411 14.6388C1.46411 14.4108 1.48811 14.3148 1.52411 14.4348C1.54811 14.5428 1.54811 14.7348 1.52411 14.8548C1.48811 14.9628 1.46411 14.8668 1.46411 14.6388Z" fill="#171A19"/>
<path d="M7.98018 14.1586C7.94418 14.0986 8.01618 13.9906 8.14818 13.9186C8.46018 13.7626 8.56818 13.9426 8.28018 14.1346C8.14818 14.2186 8.02818 14.2306 7.98018 14.1586Z" fill="#171A19"/>
<path d="M13.716 9.15378C13.488 9.06978 13.524 8.92578 13.776 8.92578C13.896 8.92578 14.004 8.99778 14.004 9.08178C14.004 9.24978 13.956 9.26178 13.716 9.15378Z" fill="#171A19"/>
<path d="M4.40406 4.59381C4.12806 4.28181 4.14006 4.16181 4.46406 4.01781C4.62006 3.94581 4.78806 3.77781 4.86006 3.63381C4.98006 3.40581 5.00406 3.39381 5.12406 3.57381C5.31606 3.87381 5.46006 3.64581 5.29206 3.28581C5.16006 2.97381 5.19606 2.75781 5.41206 2.75781C5.47206 2.75781 5.52006 2.91381 5.52006 3.10581C5.52006 3.58581 5.73606 4.11381 5.88006 4.01781C5.94006 3.98181 6.00006 3.83781 6.00006 3.70581C6.00006 3.57381 6.06006 3.50181 6.12006 3.53781C6.31206 3.65781 6.25206 4.26981 6.02406 4.47381C5.91606 4.58181 5.54406 4.70181 5.22006 4.73781C4.71606 4.80981 4.58406 4.78581 4.40406 4.59381Z" fill="#171A19"/>
<path d="M11.976 2.67425C12.12 2.65025 12.336 2.65025 12.456 2.67425C12.564 2.71025 12.444 2.73425 12.18 2.72225C11.916 2.72225 11.82 2.69825 11.976 2.67425Z" fill="#171A19"/>
</svg>
